<svg xmlns="http://www.w3.org/2000/svg" viewBox="0 0 1440 320">
        <path
          fill="#35A29F"
          fill-opacity="1"
          d="M0,64L40,101.3C80,139,160,213,240,229.3C320,245,400,203,480,197.3C560,192,640,224,720,213.3C800,203,880,149,960,144C1040,139,1120,181,1200,192C1280,203,1360,181,1400,170.7L1440,160L1440,320L1400,320C1360,320,1280,320,1200,320C1120,320,1040,320,960,320C880,320,800,320,720,320C640,320,560,320,480,320C400,320,320,320,240,320C160,320,80,320,40,320L0,320Z"
        ></path>
      </svg>